<svg width="25" height="24" viewBox="0 0 25 24" fill="none" xmlns="http://www.w3.org/2000/svg">
<path d="M12.0557 2C17.5787 2 22.0557 6.477 22.0557 12C22.0557 17.523 17.5787 22 12.0557 22C10.4597 22.0022 8.88649 21.6208 7.46867 20.888L3.64267 21.955C3.42921 22.0146 3.20375 22.0163 2.9894 21.9601C2.77504 21.9038 2.57949 21.7916 2.42278 21.6349C2.26608 21.4782 2.15385 21.2826 2.0976 21.0683C2.04135 20.8539 2.0431 20.6285 2.10267 20.415L3.17067 16.592C2.43602 15.1729 2.0536 13.5979 2.05567 12C2.05567 6.477 6.53267 2 12.0557 2ZM12.0557 3.5C9.80133 3.5 7.63932 4.39553 6.04526 5.98959C4.45121 7.58365 3.55567 9.74566 3.55567 12C3.55567 13.47 3.92867 14.883 4.62867 16.137L4.77867 16.407L3.66667 20.391L7.65367 19.279L7.92367 19.429C9.05806 20.0597 10.3218 20.4222 11.618 20.4888C12.9142 20.5554 14.2085 20.3242 15.4015 19.8131C16.5945 19.3019 17.6547 18.5244 18.5006 17.54C19.3466 16.5556 19.9558 15.3906 20.2817 14.1343C20.6076 12.8779 20.6415 11.5636 20.3807 10.2922C20.1199 9.02073 19.5714 7.82589 18.7773 6.79927C17.9832 5.77264 16.9645 4.94152 15.7994 4.36962C14.6342 3.79773 13.3536 3.50025 12.0557 3.5ZM12.0557 15.5C12.3209 15.5 12.5752 15.6054 12.7628 15.7929C12.9503 15.9804 13.0557 16.2348 13.0557 16.5C13.0557 16.7652 12.9503 17.0196 12.7628 17.2071C12.5752 17.3946 12.3209 17.5 12.0557 17.5C11.7905 17.5 11.5361 17.3946 11.3486 17.2071C11.161 17.0196 11.0557 16.7652 11.0557 16.5C11.0557 16.2348 11.161 15.9804 11.3486 15.7929C11.5361 15.6054 11.7905 15.5 12.0557 15.5ZM12.0557 6.75C12.785 6.75 13.4845 7.03973 14.0002 7.55546C14.5159 8.07118 14.8057 8.77065 14.8057 9.5C14.8057 10.51 14.5087 11.074 13.7547 11.859L13.5857 12.03C12.9637 12.652 12.8057 12.916 12.8057 13.5C12.8057 13.6989 12.7267 13.8897 12.586 14.0303C12.4453 14.171 12.2546 14.25 12.0557 14.25C11.8568 14.25 11.666 14.171 11.5253 14.0303C11.3847 13.8897 11.3057 13.6989 11.3057 13.5C11.3057 12.49 11.6027 11.926 12.3567 11.141L12.5257 10.97C13.1477 10.348 13.3057 10.084 13.3057 9.5C13.3046 9.18028 13.1811 8.8731 12.9605 8.64165C12.74 8.4102 12.4391 8.27208 12.1198 8.25568C11.8005 8.23929 11.487 8.34587 11.2439 8.55351C11.0008 8.76115 10.8464 9.05406 10.8127 9.372L10.8057 9.5C10.8057 9.69891 10.7267 9.88968 10.586 10.0303C10.4453 10.171 10.2546 10.25 10.0557 10.25C9.85676 10.25 9.666 10.171 9.52534 10.0303C9.38469 9.88968 9.30567 9.69891 9.30567 9.5C9.30567 8.77065 9.5954 8.07118 10.1111 7.55546C10.6269 7.03973 11.3263 6.75 12.0557 6.75Z" fill="black"/>
</svg>
