<svg width="25" height="24" viewBox="0 0 25 24" fill="none" xmlns="http://www.w3.org/2000/svg">
<path d="M15.8057 1.5C14.7516 1.49976 13.7122 1.74642 12.7706 2.22023C11.829 2.69404 11.0116 3.38181 10.3837 4.22844C9.75576 5.07506 9.33491 6.057 9.15483 7.09555C8.97475 8.13411 9.04045 9.20041 9.34666 10.209L1.55566 18V22.5H6.05566L13.8467 14.709C14.7751 14.9908 15.7534 15.0692 16.7148 14.9387C17.6763 14.8083 18.5983 14.4721 19.418 13.953C20.2378 13.434 20.936 12.7444 21.4652 11.9311C21.9943 11.1178 22.3419 10.2 22.4842 9.24025C22.6265 8.28049 22.5603 7.30132 22.29 6.36948C22.0197 5.43764 21.5517 4.57502 20.9178 3.84042C20.284 3.10582 19.4992 2.51649 18.617 2.11261C17.7348 1.70872 16.7759 1.49978 15.8057 1.5ZM15.8057 13.5C15.2893 13.4997 14.7758 13.4234 14.2817 13.2735L13.4214 13.0125L12.7862 13.6478L10.4004 16.0335L9.36616 15L8.30566 16.0605L9.33991 17.0947L8.15041 18.2843L7.11616 17.25L6.05566 18.3105L7.08991 19.3447L5.43466 21H3.05566V18.621L10.4072 11.2695L11.0432 10.6342L10.7822 9.774C10.4616 8.71724 10.4824 7.58631 10.8417 6.54207C11.2009 5.49784 11.8803 4.59347 12.7832 3.95762C13.6861 3.32177 14.7665 2.98681 15.8707 3.0004C16.9749 3.01398 18.0467 3.37542 18.9337 4.03329C19.8207 4.69116 20.4776 5.61197 20.811 6.66473C21.1445 7.71749 21.1375 8.84859 20.791 9.89714C20.4446 10.9457 19.7763 11.8583 18.8812 12.5051C17.9862 13.152 16.91 13.5001 15.8057 13.5Z" fill="black"/>
<path d="M16.5557 9C17.3841 9 18.0557 8.32843 18.0557 7.5C18.0557 6.67157 17.3841 6 16.5557 6C15.7272 6 15.0557 6.67157 15.0557 7.5C15.0557 8.32843 15.7272 9 16.5557 9Z" fill="black"/>
</svg>
