<svg width="24" height="24" viewBox="0 0 24 24" fill="none" xmlns="http://www.w3.org/2000/svg">
<g clip-path="url(#clip0_127_2982)">
<path d="M12 24C9.79467 24 8 22.2053 8 20L8.07067 15.9293L4.024 16C1.79467 16 0 14.2053 0 12C0 9.79467 1.79467 8 4 8L8.07067 7.928L8 4.024C8 1.79467 9.79467 0 12 0C14.2053 0 16 1.79467 16 4L16.0733 7.928L20.024 8C22.2053 8 24 9.79467 24 12C24 14.2053 22.2053 16 20 16L16.0733 15.9293L16 20.024C16 22.2053 14.2053 24 12 24ZM10.6667 13.3333V20.024C10.6667 20.7347 11.2653 21.3333 12 21.3333C12.7347 21.3333 13.3333 20.7347 13.3333 20V13.3333H20.024C20.7347 13.3333 21.3333 12.7347 21.3333 12C21.3333 11.2653 20.7347 10.6667 20 10.6667H13.3333V4C13.3333 3.24133 12.7347 2.66667 12 2.66667C11.2653 2.66667 10.6667 3.26533 10.6667 4V10.6667H4C3.24133 10.6667 2.66667 11.2653 2.66667 12C2.66667 12.7347 3.26533 13.3333 4 13.3333H10.6667Z" fill="white"/>
</g>
<defs>
<clipPath id="clip0_127_2982">
<rect width="24" height="24" fill="white"/>
</clipPath>
</defs>
</svg>
