<svg width="24" height="24" viewBox="0 0 24 24" fill="none" xmlns="http://www.w3.org/2000/svg">
<path d="M13.6875 7.49999C13.6875 7.35081 13.7468 7.20773 13.8523 7.10224C13.9578 6.99676 14.1009 6.93749 14.25 6.93749H23.25C23.3992 6.93749 23.5423 6.99676 23.6478 7.10224C23.7533 7.20773 23.8125 7.35081 23.8125 7.49999C23.8125 7.64918 23.7533 7.79225 23.6478 7.89774C23.5423 8.00323 23.3992 8.06249 23.25 8.06249H14.25C14.1009 8.06249 13.9578 8.00323 13.8523 7.89774C13.7468 7.79225 13.6875 7.64918 13.6875 7.49999ZM23.25 11.4375H14.25C14.1009 11.4375 13.9578 11.4968 13.8523 11.6022C13.7468 11.7077 13.6875 11.8508 13.6875 12C13.6875 12.1492 13.7468 12.2923 13.8523 12.3977C13.9578 12.5032 14.1009 12.5625 14.25 12.5625H23.25C23.3992 12.5625 23.5423 12.5032 23.6478 12.3977C23.7533 12.2923 23.8125 12.1492 23.8125 12C23.8125 11.8508 23.7533 11.7077 23.6478 11.6022C23.5423 11.4968 23.3992 11.4375 23.25 11.4375ZM23.25 15.9375H16.5C16.3509 15.9375 16.2078 15.9968 16.1023 16.1022C15.9968 16.2077 15.9375 16.3508 15.9375 16.5C15.9375 16.6492 15.9968 16.7923 16.1023 16.8977C16.2078 17.0032 16.3509 17.0625 16.5 17.0625H23.25C23.3992 17.0625 23.5423 17.0032 23.6478 16.8977C23.7533 16.7923 23.8125 16.6492 23.8125 16.5C23.8125 16.3508 23.7533 16.2077 23.6478 16.1022C23.5423 15.9968 23.3992 15.9375 23.25 15.9375ZM14.0447 17.8594C14.0632 17.9309 14.0674 18.0054 14.0571 18.0785C14.0468 18.1517 14.0222 18.2221 13.9846 18.2857C13.9471 18.3493 13.8974 18.405 13.8384 18.4494C13.7794 18.4938 13.7122 18.5262 13.6407 18.5447C13.5691 18.5631 13.4947 18.5673 13.4215 18.557C13.3484 18.5467 13.278 18.5221 13.2143 18.4846C13.1507 18.4471 13.0951 18.3974 13.0506 18.3384C13.0062 18.2793 12.9738 18.2121 12.9554 18.1406C12.3469 15.7772 10.0529 14.0625 7.50005 14.0625C4.94724 14.0625 2.65317 15.7772 2.04474 18.1397C2.02627 18.2112 1.99389 18.2784 1.94946 18.3374C1.90502 18.3964 1.8494 18.4461 1.78576 18.4836C1.72213 18.5212 1.65172 18.5458 1.57857 18.5561C1.50542 18.5664 1.43095 18.5622 1.35942 18.5437C1.28789 18.5253 1.2207 18.4929 1.16168 18.4485C1.10267 18.404 1.05298 18.3484 1.01546 18.2848C0.977938 18.2211 0.953319 18.1507 0.943007 18.0776C0.932696 18.0044 0.936893 17.93 0.95536 17.8584C1.49349 15.7697 3.11161 14.1019 5.14317 13.3584C4.36503 12.8506 3.77172 12.105 3.45159 11.2328C3.13145 10.3605 3.10161 9.40811 3.36652 8.51749C3.63142 7.62687 4.17689 6.84563 4.92171 6.29009C5.66654 5.73456 6.57087 5.43445 7.50005 5.43445C8.42923 5.43445 9.33356 5.73456 10.0784 6.29009C10.8232 6.84563 11.3687 7.62687 11.6336 8.51749C11.8985 9.40811 11.8686 10.3605 11.5485 11.2328C11.2284 12.105 10.6351 12.8506 9.85692 13.3584C11.8866 14.1028 13.5075 15.7706 14.0447 17.8594ZM7.50005 12.9375C8.13048 12.9375 8.74675 12.7505 9.27093 12.4003C9.79511 12.0501 10.2037 11.5522 10.4449 10.9698C10.6862 10.3874 10.7493 9.74646 10.6263 9.12814C10.5033 8.50983 10.1997 7.94187 9.75395 7.49609C9.30817 7.05031 8.74021 6.74673 8.1219 6.62374C7.50358 6.50075 6.86268 6.56387 6.28024 6.80513C5.6978 7.04638 5.19999 7.45493 4.84974 7.97911C4.49949 8.50329 4.31255 9.11956 4.31255 9.74999C4.31255 10.5954 4.64837 11.4061 5.24614 12.0039C5.84392 12.6017 6.65467 12.9375 7.50005 12.9375Z" fill="white"/>
</svg>
