<svg width="27" height="29" viewBox="0 0 27 29" fill="none" xmlns="http://www.w3.org/2000/svg">
<path d="M26.7036 18.293L23.9632 15.586V12C23.96 9.52184 23.0268 7.13285 21.3438 5.29498C19.6609 3.45712 17.3479 2.30093 14.852 2.05V0H12.8273V2.05C10.3315 2.30093 8.01846 3.45712 6.33555 5.29498C4.65263 7.13285 3.71938 9.52184 3.71624 12V15.586L0.975816 18.293C0.785952 18.4805 0.679257 18.7348 0.679199 19V22C0.679199 22.2652 0.785857 22.5196 0.975708 22.7071C1.16556 22.8946 1.42305 23 1.69154 23H8.77796V23.777C8.75594 25.0456 9.20862 26.2777 10.0493 27.237C10.8899 28.1964 12.0593 28.8156 13.3335 28.976C14.0373 29.0449 14.7479 28.9676 15.4195 28.749C16.0912 28.5304 16.7092 28.1753 17.2336 27.7066C17.758 27.2379 18.1774 26.666 18.4646 26.0277C18.7518 25.3893 18.9006 24.6986 18.9014 24V23H25.9878C26.2563 23 26.5138 22.8946 26.7037 22.7071C26.8935 22.5196 27.0002 22.2652 27.0002 22V19C27.0001 18.7348 26.8934 18.4805 26.7036 18.293ZM16.8767 24C16.8767 24.7956 16.5568 25.5587 15.9872 26.1213C15.4176 26.6839 14.6452 27 13.8397 27C13.0342 27 12.2617 26.6839 11.6922 26.1213C11.1226 25.5587 10.8027 24.7956 10.8027 24V23H16.8767V24ZM24.9755 21H2.70389V19.414L5.44431 16.707C5.63417 16.5195 5.74087 16.2652 5.74093 16V12C5.74093 9.87827 6.59419 7.84344 8.113 6.34315C9.63181 4.84285 11.6918 4 13.8397 4C15.9876 4 18.0476 4.84285 19.5664 6.34315C21.0852 7.84344 21.9385 9.87827 21.9385 12V16C21.9385 16.2652 22.0452 16.5195 22.2351 16.707L24.9755 19.414V21Z" fill="black"/>
</svg>
